<?xml version="1.0" encoding="utf-8"?>
<!-- Generator: Adobe Illustrator 16.0.0, SVG Export Plug-In . SVG Version: 6.00 Build 0)  -->
<!DOCTYPE svg PUBLIC "-//W3C//DTD SVG 1.1//EN" "http://www.w3.org/Graphics/SVG/1.1/DTD/svg11.dtd">
<svg version="1.1" id="Layer_1" xmlns="http://www.w3.org/2000/svg" xmlns:xlink="http://www.w3.org/1999/xlink" x="0px" y="0px"
	 width="120px" height="50px" viewBox="0 0 120 50" enable-background="new 0 0 120 50" xml:space="preserve">
<g id="XMLID_48_">
	<g id="XMLID_5_">
		<g id="COIN_1_">
			<path id="XMLID_47_" fill="#F3F3F3" d="M82.75,23.924c0-0.068,0-0.12-0.016-0.188c0-0.034,0-0.068,0-0.103
				c-0.017-0.239-0.033-0.479-0.05-0.72c-0.017-0.274-0.048-0.548-0.081-0.823c-0.016-0.103-0.016-0.189-0.032-0.292
				c-0.019-0.103-0.033-0.188-0.033-0.291c-0.031-0.206-0.064-0.411-0.098-0.617c-0.016-0.086-0.032-0.171-0.051-0.257
				c-0.014-0.103-0.029-0.188-0.046-0.292c-0.017-0.103-0.033-0.188-0.05-0.292c-0.032-0.171-0.066-0.36-0.115-0.53
				c-0.017-0.103-0.05-0.207-0.066-0.309c-0.161-0.686-0.341-1.355-0.568-2.006c-0.033-0.086-0.064-0.189-0.097-0.274
				c-0.098-0.274-0.182-0.532-0.295-0.789c-0.033-0.086-0.066-0.188-0.098-0.274c-0.033-0.086-0.065-0.154-0.098-0.24
				c-0.032-0.087-0.065-0.172-0.114-0.257c-0.032-0.069-0.065-0.155-0.098-0.223c-0.033-0.069-0.048-0.12-0.081-0.189
				c-0.017-0.017-0.017-0.051-0.035-0.068c-0.032-0.068-0.064-0.137-0.079-0.188c-0.065-0.154-0.13-0.292-0.212-0.445
				c-0.031-0.086-0.083-0.172-0.132-0.257c-0.098-0.188-0.195-0.395-0.293-0.583c-0.032-0.051-0.049-0.103-0.082-0.154
				c-0.016-0.035-0.048-0.086-0.064-0.121l0,0c-0.032-0.051-0.065-0.12-0.097-0.171c-0.052-0.086-0.101-0.171-0.147-0.257
				c-0.179-0.308-0.36-0.6-0.539-0.892c-0.098-0.154-0.195-0.308-0.293-0.446c-0.066-0.103-0.13-0.206-0.197-0.291
				c-0.049-0.086-0.111-0.172-0.163-0.24c-0.016-0.034-0.049-0.069-0.081-0.104c-0.097-0.137-0.178-0.256-0.277-0.394
				c-0.112-0.154-0.226-0.309-0.359-0.463c-0.031-0.034-0.064-0.086-0.097-0.12c-0.277-0.359-0.569-0.703-0.864-1.027
				c-0.05-0.052-0.081-0.104-0.131-0.138l0,0c-0.064-0.069-0.113-0.137-0.179-0.206c-0.098-0.103-0.195-0.206-0.293-0.309
				c-0.067-0.069-0.146-0.155-0.212-0.223c-0.048-0.051-0.081-0.085-0.132-0.137c-0.065-0.068-0.131-0.137-0.195-0.188
				c-0.081-0.086-0.163-0.155-0.244-0.224c-0.082-0.085-0.182-0.171-0.26-0.256c-0.1-0.086-0.195-0.171-0.295-0.257
				c-0.064-0.051-0.13-0.12-0.194-0.171c-0.082-0.07-0.146-0.138-0.229-0.19c-0.081-0.068-0.146-0.136-0.23-0.188
				c-0.064-0.052-0.13-0.103-0.176-0.155c-0.065-0.051-0.133-0.103-0.198-0.154c-0.049-0.034-0.081-0.068-0.13-0.103
				c-0.048-0.034-0.098-0.085-0.163-0.12c-0.032-0.016-0.048-0.033-0.081-0.068c-0.049-0.034-0.098-0.085-0.165-0.12
				c-0.081-0.069-0.16-0.12-0.258-0.188C72.722,5.224,72.575,5.121,72.412,5c-0.097-0.068-0.179-0.12-0.278-0.188
				c-0.081-0.052-0.163-0.12-0.242-0.172c-0.017-0.017-0.048-0.034-0.066-0.05c-0.065-0.052-0.13-0.086-0.212-0.138
				C71.581,4.434,71.565,4.417,71.53,4.4c-0.078-0.05-0.16-0.103-0.258-0.153c-0.1-0.052-0.198-0.121-0.295-0.172
				c-0.049-0.034-0.079-0.051-0.131-0.068c-0.244-0.137-0.504-0.291-0.767-0.411c-0.064-0.034-0.114-0.069-0.179-0.104
				c-0.065-0.034-0.114-0.068-0.179-0.085c-0.066-0.034-0.131-0.068-0.182-0.086c-0.065-0.034-0.128-0.068-0.177-0.085
				c-0.345-0.155-0.669-0.309-1.013-0.464c-0.079-0.033-0.179-0.068-0.26-0.103c-0.082-0.034-0.18-0.069-0.26-0.103
				c-0.066-0.034-0.131-0.051-0.196-0.068c-0.116-0.051-0.229-0.086-0.357-0.137c-0.083-0.035-0.165-0.052-0.23-0.086
				c-0.506-0.172-1.011-0.326-1.518-0.463c-0.065-0.017-0.131-0.034-0.212-0.051c-0.081-0.017-0.146-0.035-0.228-0.052
				c-0.065-0.017-0.13-0.035-0.196-0.052c-0.081-0.016-0.177-0.034-0.261-0.068c-0.064-0.017-0.131-0.034-0.179-0.034
				c-0.049-0.017-0.096-0.017-0.146-0.034c-0.49-0.103-0.964-0.189-1.453-0.257c-0.063-0.018-0.129-0.018-0.195-0.035
				c-0.211-0.035-0.423-0.051-0.637-0.068l0,0c-0.081,0-0.146-0.018-0.226-0.018c-0.196-0.017-0.394-0.035-0.571-0.035
				c-0.05,0-0.098,0-0.132,0c-0.049,0-0.097,0-0.13,0c-0.018,0-0.033,0-0.05,0c-0.096,0-0.21-0.018-0.309-0.018
				c-0.016,0-0.032,0-0.049,0c-0.115,0-0.211,0-0.326,0c-0.114,0-0.229,0-0.327,0c-0.44,0-0.896,0.018-1.337,0.035
				c-3.179,0.188-6.228,1.063-9.017,2.554c-0.082,0.034-0.163,0.085-0.229,0.12c-0.228,0.12-0.473,0.257-0.701,0.395
				c-0.473,0.274-0.929,0.583-1.386,0.892c-0.212,0.154-0.44,0.308-0.653,0.479c-1.011,0.755-1.957,1.612-2.853,2.554
				c-0.929,0.978-1.761,2.023-2.511,3.12c-0.163,0.24-0.325,0.479-0.472,0.737c-0.489,0.789-0.93,1.612-1.338,2.452
				c-1.37,2.897-2.169,6.068-2.348,9.375c-0.017,0.446-0.033,0.875-0.033,1.321c0,0.498,0.017,0.995,0.05,1.492
				c0.016,0.256,0.032,0.513,0.049,0.771c0.244,2.707,0.913,5.331,1.973,7.748c0.131,0.274,0.245,0.567,0.392,0.84
				c0.408,0.838,0.848,1.646,1.354,2.435c0.831,1.318,1.81,2.553,2.886,3.701c1.125,1.183,2.349,2.229,3.652,3.12
				c0.75,0.515,1.517,0.995,2.315,1.406c0.229,0.118,0.457,0.239,0.685,0.342c2.332,1.116,4.827,1.817,7.418,2.075
				c0.278,0.033,0.538,0.051,0.816,0.069c0.423,0.016,0.847,0.033,1.287,0.033c0.146,0,0.278,0,0.425,0c0.082,0,0.146,0,0.228,0
				h0.017c0.032,0,0.049,0,0.083,0h0.017c0.099,0,0.193,0,0.275-0.018c0.099,0,0.215-0.016,0.311-0.016c0.017,0,0.033,0,0.051,0
				c0.097,0,0.211-0.019,0.31-0.019c0.193-0.018,0.373-0.035,0.568-0.051c0.1-0.016,0.195-0.016,0.294-0.033
				c0.1-0.019,0.196-0.019,0.294-0.036c0.081-0.016,0.163-0.016,0.261-0.033c0.065,0,0.114-0.018,0.182-0.018
				c0.031,0,0.079-0.017,0.112-0.017c0.082-0.018,0.179-0.033,0.262-0.033c0.064-0.018,0.131-0.018,0.194-0.038
				c0.051,0,0.099-0.016,0.146-0.032c0.018,0,0.018,0,0.034,0c0.047-0.018,0.098-0.018,0.146-0.033c0.016,0,0.032,0,0.048-0.02
				c0.051-0.016,0.099-0.016,0.148-0.032c0.015,0,0.015,0,0.031,0c0.034,0,0.081-0.018,0.114-0.018
				c0.082-0.016,0.147-0.035,0.229-0.051c0.244-0.054,0.471-0.103,0.699-0.172c0.081-0.016,0.162-0.035,0.244-0.069
				c0.051-0.016,0.1-0.016,0.149-0.033c0.064-0.018,0.13-0.036,0.178-0.052l0,0c0.082-0.018,0.146-0.051,0.228-0.068
				c0.065-0.018,0.134-0.035,0.196-0.068c0.13-0.036,0.263-0.087,0.376-0.12c0.081-0.037,0.163-0.052,0.244-0.085
				c0.098-0.036,0.18-0.069,0.279-0.106c0.047-0.015,0.095-0.032,0.128-0.048c0.048-0.018,0.097-0.035,0.13-0.052
				c0.1-0.035,0.182-0.068,0.279-0.103c0.097-0.037,0.178-0.069,0.276-0.106c0.081-0.033,0.181-0.065,0.26-0.103
				c0.083-0.033,0.178-0.066,0.263-0.117c0.081-0.037,0.178-0.085,0.26-0.121h0.016c0.115-0.049,0.212-0.104,0.326-0.154
				c0,0,0,0,0.019,0c0.111-0.055,0.209-0.104,0.307-0.155c0.214-0.103,0.425-0.221,0.637-0.325c0.101-0.05,0.197-0.101,0.295-0.155
				c0.079-0.033,0.146-0.085,0.228-0.136c0.229-0.121,0.439-0.257,0.67-0.393c0.097-0.052,0.179-0.122,0.275-0.173
				c0.211-0.137,0.407-0.257,0.62-0.393c0.082-0.054,0.163-0.105,0.242-0.173c0.214-0.156,0.426-0.29,0.62-0.444
				c0.133-0.105,0.263-0.19,0.393-0.293c0.131-0.103,0.261-0.205,0.375-0.308l0.146-0.12c0.082-0.068,0.148-0.12,0.23-0.19
				c0.064-0.051,0.13-0.103,0.179-0.153c0.065-0.066,0.146-0.121,0.211-0.188c0.474-0.43,0.945-0.875,1.387-1.34
				c0.098-0.101,0.212-0.223,0.309-0.323c0.066-0.069,0.131-0.138,0.18-0.206c0.114-0.139,0.229-0.257,0.344-0.393
				c0.113-0.121,0.212-0.26,0.326-0.378c0.016-0.019,0.016-0.034,0.031-0.034c0.065-0.068,0.131-0.153,0.198-0.24
				c0.095-0.119,0.192-0.243,0.276-0.361c0.033-0.052,0.081-0.103,0.114-0.154c0.049-0.069,0.113-0.138,0.163-0.223
				c0.048-0.07,0.113-0.14,0.162-0.225c0.081-0.118,0.178-0.236,0.262-0.356c0.047-0.07,0.079-0.122,0.13-0.19c0,0,0,0,0.017-0.019
				c0.095-0.136,0.179-0.271,0.276-0.41c0.065-0.086,0.114-0.188,0.178-0.273c0,0,0,0,0-0.018v-0.018
				c0.033-0.05,0.066-0.118,0.115-0.17c0.017-0.018,0.032-0.033,0.032-0.069c0.065-0.121,0.146-0.239,0.214-0.36
				c0.063-0.103,0.112-0.205,0.18-0.29c0.014-0.034,0.046-0.088,0.063-0.121c0.033-0.069,0.066-0.12,0.1-0.188
				c0.163-0.312,0.326-0.616,0.488-0.926c0.049-0.105,0.101-0.206,0.148-0.309c0.08-0.156,0.146-0.327,0.226-0.48
				c0.067-0.139,0.117-0.257,0.182-0.395c0.032-0.068,0.065-0.138,0.097-0.223c0.033-0.087,0.066-0.172,0.114-0.256
				c0.163-0.396,0.312-0.772,0.441-1.167c0.014-0.07,0.049-0.139,0.065-0.204c0.078-0.26,0.162-0.517,0.243-0.791
				c0.032-0.085,0.049-0.17,0.081-0.255c0.017-0.084,0.05-0.173,0.065-0.242c0.032-0.118,0.067-0.221,0.098-0.341
				c0-0.019,0.017-0.036,0.017-0.052c0.016-0.085,0.048-0.19,0.064-0.275c0-0.018,0.017-0.051,0.017-0.069
				c0.017-0.068,0.033-0.153,0.048-0.223c0.017-0.049,0.017-0.103,0.033-0.153c0.098-0.445,0.198-0.908,0.263-1.371
				c0.017-0.069,0.017-0.138,0.032-0.206c0.017-0.051,0.017-0.12,0.033-0.17c0.017-0.104,0.033-0.189,0.046-0.293
				c0.019-0.102,0.033-0.188,0.033-0.29c0.019-0.138,0.035-0.292,0.051-0.43c0.017-0.085,0.017-0.154,0.033-0.239
				c0.016-0.104,0.016-0.208,0.031-0.312c0-0.05,0.017-0.102,0.017-0.15c0-0.052,0-0.103,0.017-0.157
				c0-0.085,0.017-0.188,0.017-0.273c0-0.033,0-0.086,0-0.119c0-0.069,0.017-0.155,0.017-0.225c0-0.119,0.016-0.222,0.016-0.341
				c0.016-0.224,0.016-0.464,0.016-0.687c0-0.12,0-0.222,0-0.343v-0.017C82.782,24.679,82.766,24.3,82.75,23.924z"/>
			<path id="XMLID_46_" display="none" fill="#E3E0E3" d="M82.782,25.073c0,0.119,0,0.223,0,0.342c0,0.224-0.017,0.464-0.017,0.686
				c0,0.12-0.016,0.223-0.016,0.344c0,0.067,0,0.153-0.016,0.223c0,0.034,0,0.086,0,0.119c0,0.086-0.017,0.189-0.017,0.274
				c0,0.052,0,0.103-0.017,0.155c0,0.051,0,0.103-0.017,0.153c-0.017,0.104-0.017,0.208-0.032,0.308
				c0,0.088-0.016,0.156-0.032,0.242c-0.017,0.138-0.032,0.29-0.049,0.428c-0.019,0.104-0.033,0.189-0.033,0.292
				c-0.019,0.103-0.031,0.188-0.048,0.292c-0.017,0.05-0.017,0.118-0.033,0.171c-0.017,0.069-0.017,0.137-0.032,0.205
				c-0.081,0.464-0.163,0.909-0.263,1.371c-0.017,0.051-0.017,0.103-0.033,0.154c-0.017,0.069-0.031,0.154-0.048,0.224
				c0,0.016-0.017,0.051-0.017,0.068c-0.017,0.085-0.047,0.188-0.065,0.275c0,0.016,0,0.034-0.016,0.05
				c-0.032,0.12-0.063,0.223-0.099,0.341c-0.016,0.087-0.048,0.174-0.064,0.245c-0.032,0.084-0.049,0.169-0.082,0.254
				c-0.081,0.256-0.164,0.532-0.244,0.789c-0.015,0.066-0.047,0.138-0.066,0.206c-0.127,0.393-0.275,0.789-0.438,1.165
				c-0.032,0.087-0.064,0.171-0.114,0.256c-0.032,0.069-0.064,0.139-0.098,0.224c-0.065,0.139-0.113,0.275-0.181,0.396
				c-0.065,0.154-0.147,0.324-0.226,0.479c-0.049,0.103-0.1,0.205-0.149,0.308c-0.146,0.313-0.309,0.617-0.487,0.927
				c-0.05,0.104-0.116,0.205-0.165,0.308c-0.063,0.104-0.114,0.209-0.177,0.294c-0.065,0.118-0.148,0.238-0.214,0.358
				c-0.017,0.017-0.032,0.035-0.032,0.068c-0.033,0.054-0.065,0.12-0.113,0.172v0.016c0,0,0,0,0,0.02
				c-0.066,0.085-0.115,0.188-0.18,0.272c-0.098,0.14-0.182,0.275-0.279,0.412c0,0,0,0.018-0.014,0.018
				c-0.049,0.066-0.084,0.12-0.131,0.188c-0.081,0.121-0.181,0.241-0.262,0.36c-0.048,0.068-0.113,0.153-0.161,0.223
				c-0.05,0.069-0.115,0.137-0.163,0.222c-0.033,0.055-0.082,0.105-0.114,0.157c-0.101,0.117-0.182,0.239-0.278,0.357
				c-0.063,0.088-0.131,0.156-0.196,0.243c-0.017,0.017-0.017,0.032-0.032,0.032c-0.098,0.138-0.212,0.256-0.325,0.378
				c-0.114,0.136-0.23,0.256-0.344,0.395c-0.065,0.067-0.114,0.137-0.18,0.204c-0.098,0.122-0.211,0.223-0.311,0.326
				c-0.439,0.462-0.911,0.925-1.385,1.336c-0.065,0.069-0.146,0.121-0.214,0.19c-0.063,0.052-0.128,0.104-0.177,0.154
				c-0.081,0.066-0.146,0.121-0.23,0.187l-0.146,0.123c-0.13,0.1-0.244,0.205-0.374,0.308s-0.26,0.205-0.393,0.291
				c-0.211,0.154-0.407,0.31-0.618,0.446c-0.081,0.051-0.163,0.103-0.244,0.171c-0.198,0.138-0.407,0.274-0.62,0.393
				c-0.097,0.053-0.181,0.12-0.275,0.174c-0.214,0.137-0.442,0.273-0.67,0.394c-0.081,0.051-0.146,0.085-0.228,0.136
				c-0.098,0.052-0.195,0.104-0.296,0.155c-0.211,0.12-0.422,0.223-0.637,0.325c-0.095,0.052-0.211,0.101-0.306,0.154
				c0,0,0,0-0.017,0c-0.116,0.052-0.215,0.104-0.328,0.155H68.89c-0.081,0.036-0.179,0.085-0.261,0.121
				c-0.083,0.032-0.18,0.069-0.262,0.117c-0.078,0.037-0.178,0.07-0.26,0.103c-0.098,0.034-0.181,0.07-0.275,0.103
				c-0.099,0.037-0.18,0.068-0.279,0.104c-0.05,0.019-0.099,0.033-0.13,0.052c-0.05,0.018-0.098,0.035-0.129,0.052
				c-0.099,0.035-0.181,0.068-0.278,0.104c-0.083,0.03-0.163,0.049-0.244,0.085c-0.13,0.033-0.263,0.085-0.376,0.118
				c-0.066,0.018-0.131,0.035-0.196,0.069c-0.081,0.018-0.146,0.051-0.229,0.068l0,0c-0.063,0.018-0.128,0.035-0.177,0.051
				c-0.049,0.018-0.098,0.035-0.148,0.035c-0.082,0.016-0.163,0.052-0.245,0.069c-0.227,0.069-0.471,0.118-0.698,0.17
				c-0.082,0.018-0.147,0.033-0.23,0.053c-0.031,0-0.08,0.017-0.111,0.017c-0.019,0-0.019,0-0.035,0
				c-0.048,0.018-0.096,0.018-0.146,0.033c-0.017,0-0.032,0-0.049,0.02c-0.049,0.016-0.099,0.016-0.146,0.033
				c-0.016,0-0.016,0-0.033,0c-0.049,0.017-0.098,0.017-0.146,0.032c-0.064,0.02-0.131,0.02-0.197,0.035
				c-0.082,0.018-0.179,0.034-0.261,0.034c-0.031,0-0.08,0.016-0.113,0.016c-0.065,0.021-0.114,0.021-0.181,0.021
				c-0.08,0.018-0.162,0.018-0.26,0.033c-0.098,0.018-0.196,0.018-0.295,0.034c-0.098,0.018-0.194,0.018-0.293,0.035
				c-0.195,0.016-0.375,0.033-0.568,0.052c-0.099,0-0.215,0.018-0.31,0.018c-0.018,0-0.034,0-0.051,0
				c-0.098,0-0.212,0.016-0.31,0.016c-0.099,0-0.194,0-0.276,0.016h-0.016c-0.033,0-0.05,0-0.083,0h-0.017c-0.065,0-0.147,0-0.228,0
				c-0.146,0-0.278,0-0.426,0V1.041c0.115,0,0.23,0,0.328,0c0.244,0,0.49,0.017,0.733,0.017c0.048,0,0.097,0,0.131,0
				c0.05,0,0.098,0,0.13,0c0.194,0.018,0.393,0.018,0.569,0.034c0.082,0,0.146,0.018,0.229,0.018l0,0
				c0.211,0.018,0.424,0.052,0.637,0.07c0.066,0,0.131,0.016,0.195,0.034c0.489,0.069,0.979,0.154,1.451,0.257
				c0.051,0.017,0.098,0.017,0.146,0.034c0.066,0.017,0.132,0.034,0.18,0.034c0.083,0.017,0.182,0.034,0.262,0.068
				c0.064,0.017,0.13,0.035,0.194,0.051c0.083,0.017,0.164,0.035,0.229,0.052s0.13,0.035,0.211,0.052
				c0.507,0.137,1.027,0.291,1.519,0.462c0.081,0.035,0.162,0.052,0.229,0.085c0.112,0.035,0.242,0.087,0.358,0.138
				c0.065,0.017,0.13,0.051,0.195,0.068c0.079,0.034,0.179,0.068,0.26,0.103c0.082,0.035,0.182,0.069,0.26,0.104
				c0.344,0.137,0.686,0.292,1.014,0.462c0.063,0.034,0.13,0.052,0.176,0.086c0.068,0.035,0.133,0.069,0.182,0.086
				c0.064,0.034,0.131,0.068,0.179,0.085c0.065,0.035,0.13,0.069,0.18,0.103c0.26,0.138,0.506,0.274,0.767,0.412
				c0.049,0.017,0.081,0.051,0.13,0.068c0.098,0.051,0.195,0.12,0.296,0.172c0.081,0.052,0.163,0.103,0.26,0.155
				c0.097,0.068,0.194,0.12,0.295,0.188c0.013,0.018,0.048,0.035,0.063,0.052c0.081,0.05,0.163,0.103,0.244,0.171
				c0.1,0.069,0.182,0.12,0.278,0.189c0.163,0.121,0.325,0.223,0.472,0.342c0.084,0.069,0.18,0.121,0.263,0.188
				c0.049,0.035,0.098,0.086,0.163,0.12c0.032,0.017,0.049,0.035,0.081,0.069c0.049,0.035,0.099,0.085,0.163,0.12
				c0.049,0.034,0.081,0.068,0.13,0.103c0.064,0.051,0.133,0.103,0.195,0.154c0.067,0.051,0.13,0.103,0.179,0.154
				c0.083,0.069,0.149,0.121,0.229,0.189c0.082,0.069,0.147,0.138,0.229,0.189c0.064,0.052,0.129,0.103,0.194,0.171
				c0.1,0.085,0.197,0.172,0.292,0.257c0.081,0.086,0.181,0.172,0.263,0.257c0.081,0.068,0.162,0.154,0.244,0.223
				c0.064,0.068,0.13,0.137,0.194,0.188c0.052,0.052,0.085,0.086,0.131,0.138C75.919,7.88,76,7.948,76.063,8.034
				c0.1,0.104,0.197,0.206,0.294,0.309c0.066,0.07,0.114,0.138,0.18,0.206l0,0c0.048,0.051,0.081,0.103,0.13,0.137
				c0.296,0.343,0.588,0.686,0.864,1.028c0.035,0.035,0.066,0.085,0.098,0.12c0.117,0.154,0.247,0.309,0.361,0.463
				c0.098,0.12,0.193,0.257,0.274,0.394c0.033,0.034,0.05,0.068,0.084,0.103c0.065,0.085,0.112,0.154,0.163,0.239
				c0.063,0.104,0.127,0.189,0.195,0.292c0.097,0.154,0.195,0.291,0.293,0.445c0.179,0.292,0.357,0.601,0.539,0.892
				c0.046,0.085,0.096,0.171,0.146,0.257c0.05,0.103,0.115,0.188,0.163,0.291c0.033,0.052,0.05,0.103,0.082,0.154
				c0.098,0.189,0.195,0.377,0.292,0.583c0.05,0.086,0.085,0.172,0.133,0.258c0.065,0.137,0.13,0.291,0.21,0.445
				c0.032,0.069,0.064,0.137,0.083,0.188c0.017,0.018,0.017,0.052,0.033,0.069c0.031,0.068,0.048,0.121,0.081,0.189
				c0.032,0.068,0.065,0.154,0.097,0.223c0.033,0.085,0.066,0.172,0.114,0.257c0.033,0.086,0.065,0.154,0.099,0.24
				c0.031,0.086,0.064,0.188,0.097,0.274c0.098,0.257,0.197,0.531,0.295,0.789c0.031,0.085,0.063,0.188,0.095,0.274
				c0.214,0.652,0.409,1.32,0.571,2.006c0.017,0.103,0.05,0.206,0.065,0.308c0.033,0.172,0.084,0.36,0.116,0.532
				c0.017,0.103,0.033,0.188,0.05,0.292c0.016,0.103,0.029,0.188,0.048,0.291c0.017,0.086,0.032,0.172,0.049,0.258
				c0.033,0.206,0.063,0.412,0.096,0.617c0.019,0.103,0.035,0.188,0.035,0.292c0.016,0.103,0.032,0.188,0.032,0.291
				c0.032,0.274,0.064,0.549,0.081,0.824c0.017,0.239,0.033,0.479,0.049,0.719c0,0.035,0,0.069,0,0.103c0,0.07,0,0.12,0.016,0.189
				C82.766,24.3,82.782,24.697,82.782,25.073z"/>
			<path id="XMLID_43_" fill="#30A5DE" d="M82.39,20.684c-0.014-0.051-0.014-0.12-0.029-0.171c0-0.034-0.017-0.069-0.017-0.104
				c-0.05-0.239-0.101-0.462-0.149-0.702c-0.065-0.274-0.113-0.531-0.179-0.806c-0.017-0.103-0.049-0.188-0.079-0.292
				c-0.035-0.103-0.052-0.188-0.083-0.291c-0.05-0.206-0.115-0.395-0.163-0.583c-0.033-0.085-0.049-0.171-0.084-0.258
				c-0.032-0.085-0.063-0.188-0.081-0.273c-0.031-0.086-0.063-0.189-0.098-0.274c-0.063-0.172-0.11-0.343-0.179-0.514
				c-0.032-0.103-0.064-0.188-0.113-0.291c-0.244-0.652-0.523-1.287-0.813-1.903c-0.051-0.085-0.084-0.171-0.133-0.257
				c-0.131-0.258-0.244-0.498-0.39-0.754c-0.049-0.086-0.099-0.171-0.13-0.257c-0.035-0.068-0.085-0.137-0.114-0.223
				c-0.049-0.084-0.101-0.154-0.148-0.24c-0.05-0.068-0.08-0.137-0.131-0.206c-0.032-0.051-0.065-0.12-0.098-0.171
				c-0.017-0.016-0.032-0.033-0.032-0.068c-0.033-0.052-0.065-0.121-0.113-0.172c-0.082-0.137-0.18-0.274-0.261-0.411
				c-0.049-0.086-0.101-0.154-0.165-0.24c-0.114-0.171-0.244-0.359-0.374-0.531c-0.033-0.052-0.065-0.086-0.098-0.137
				c-0.064-0.086-0.129-0.189-0.195-0.274c-0.064-0.085-0.113-0.154-0.179-0.24c-0.214-0.275-0.425-0.549-0.653-0.806L71.71,13.64
				c-1.285-1.475-2.836-2.709-4.531-3.618l2.576-6.65c-0.099-0.052-0.198-0.103-0.293-0.155c-0.098-0.051-0.18-0.085-0.279-0.137
				c-0.017-0.017-0.049-0.017-0.064-0.034c-0.099-0.051-0.212-0.104-0.31-0.137c-0.098-0.034-0.18-0.085-0.279-0.121
				c-0.095-0.05-0.191-0.085-0.308-0.136c-0.049-0.017-0.098-0.035-0.146-0.052c-0.26-0.103-0.539-0.205-0.797-0.309
				C67.21,2.275,67.146,2.24,67.08,2.223c-0.064-0.017-0.129-0.051-0.194-0.068s-0.131-0.052-0.195-0.068
				c-0.067-0.017-0.134-0.052-0.198-0.068c-0.357-0.12-0.715-0.223-1.06-0.309c-0.079-0.017-0.179-0.052-0.277-0.068
				c-0.097-0.018-0.179-0.052-0.275-0.069c-0.066-0.017-0.13-0.034-0.213-0.051c-0.13-0.035-0.245-0.051-0.375-0.086
				c-0.08-0.017-0.163-0.034-0.244-0.051c-0.523-0.102-1.045-0.188-1.566-0.24c-0.063,0-0.146-0.017-0.21-0.017
				c-0.084,0-0.164-0.018-0.247-0.018c-0.065,0-0.13-0.018-0.195-0.018c-0.097,0-0.178-0.016-0.277-0.016
				c-0.064,0-0.131-0.018-0.194-0.018c-0.049,0-0.099,0-0.146-0.017c-0.489-0.034-0.979-0.052-1.484-0.034c-0.067,0-0.132,0-0.197,0
				c-0.212,0-0.424,0.017-0.636,0.017l0,0c-0.082,0-0.145,0-0.228,0.017c-0.195,0.017-0.392,0.017-0.571,0.034
				c-0.049,0-0.097,0-0.13,0.016c-0.05,0-0.098,0-0.131,0.018c-0.13,0.018-0.276,0.035-0.408,0.035
				c-0.048,0-0.114,0.018-0.162,0.018c-0.049,0-0.114,0.018-0.163,0.018c-0.114,0.016-0.213,0.034-0.327,0.051
				c-0.44,0.068-0.88,0.137-1.32,0.24l0.929,7.096c-1.94,0.446-3.733,1.268-5.315,2.365l-4.207-5.657
				c-0.065,0.051-0.146,0.103-0.211,0.155c-0.212,0.154-0.425,0.325-0.636,0.497l0,0c-0.425,0.343-0.849,0.704-1.256,1.08
				c-0.196,0.189-0.392,0.377-0.587,0.566c-0.897,0.892-1.729,1.868-2.495,2.931c-0.799,1.097-1.484,2.263-2.086,3.463
				c-0.13,0.257-0.261,0.531-0.375,0.789c-0.392,0.857-0.717,1.714-1.011,2.604l6.327,2.691c-0.555,1.886-0.799,3.874-0.701,5.932
				l-6.75,0.994c0.032,0.428,0.081,0.874,0.13,1.302c0.064,0.496,0.146,0.995,0.228,1.476c0.049,0.256,0.098,0.498,0.147,0.753
				c0.586,2.659,1.581,5.143,2.951,7.404c0.163,0.258,0.326,0.517,0.489,0.774c0.505,0.771,1.06,1.506,1.648,2.21l5.38-4.424
				c1.304,1.476,2.837,2.691,4.533,3.602l-2.56,6.649c0.815,0.411,1.631,0.753,2.479,1.064c0.245,0.085,0.472,0.17,0.716,0.239
				c2.447,0.771,5.007,1.113,7.616,0.995c0.277-0.019,0.553-0.036,0.815-0.052c0.422-0.035,0.846-0.085,1.271-0.139
				c0.147-0.017,0.278-0.034,0.424-0.069c0.066-0.016,0.146-0.016,0.213-0.032h0.017c0.031,0,0.048-0.018,0.081-0.018h0.017
				c0.097-0.016,0.179-0.035,0.276-0.051c0.099-0.018,0.196-0.034,0.311-0.069c0.017,0,0.032,0,0.032,0l-0.946-7.097
				c1.908-0.444,3.67-1.253,5.233-2.332l4.191,5.676c0.098-0.069,0.18-0.138,0.276-0.208c0.064-0.05,0.149-0.103,0.214-0.152
				c0.21-0.153,0.406-0.328,0.603-0.48c0.081-0.07,0.162-0.136,0.244-0.205c0.196-0.154,0.376-0.327,0.555-0.481
				c0.065-0.069,0.148-0.137,0.213-0.205c0.193-0.172,0.375-0.36,0.554-0.53c0.114-0.12,0.228-0.223,0.344-0.345
				c0.111-0.12,0.228-0.24,0.342-0.358l0.13-0.139c0.065-0.067,0.13-0.137,0.195-0.222c0.049-0.069,0.114-0.121,0.162-0.189
				c0.065-0.067,0.133-0.137,0.198-0.222c0.423-0.498,0.813-0.995,1.207-1.527c0.081-0.118,0.177-0.238,0.258-0.378
				c0.05-0.067,0.099-0.154,0.149-0.221c0.098-0.154,0.193-0.29,0.293-0.447c0.097-0.136,0.179-0.274,0.26-0.427
				c0.017-0.018,0.017-0.035,0.033-0.051c0.048-0.088,0.098-0.173,0.162-0.258c0.082-0.138,0.165-0.257,0.23-0.394
				c0.033-0.054,0.063-0.104,0.096-0.172c0.051-0.085,0.081-0.153,0.13-0.238c0.052-0.087,0.083-0.157,0.133-0.242
				c0.064-0.136,0.146-0.275,0.211-0.393c0.032-0.07,0.065-0.141,0.097-0.206v-0.02c0.082-0.153,0.147-0.308,0.229-0.461
				c0.05-0.104,0.1-0.209,0.132-0.294c0,0,0,0,0-0.016V35.34c0.029-0.069,0.048-0.12,0.081-0.188
				c0.017-0.018,0.017-0.051,0.03-0.069c0.049-0.121,0.116-0.257,0.166-0.378c0.048-0.103,0.08-0.205,0.13-0.324
				c0.048-0.103,0.081-0.205,0.13-0.326c0.129-0.326,0.244-0.649,0.36-0.995c0.032-0.103,0.078-0.22,0.11-0.326l-6.327-2.706
				c0.556-1.869,0.818-3.875,0.705-5.931l6.747-0.978c-0.015-0.119-0.015-0.223-0.033-0.343c-0.013-0.223-0.046-0.462-0.063-0.686
				c-0.017-0.12-0.032-0.222-0.049-0.342C82.52,21.439,82.457,21.062,82.39,20.684z M61.732,39.008
				c-7.305,1.046-14.072-4.354-15.067-12.032c-0.994-7.679,4.142-14.793,11.447-15.838c7.304-1.046,14.073,4.354,15.068,12.033
				C74.174,30.85,69.036,37.962,61.732,39.008z"/>
			<path id="XMLID_42_" display="none" fill="#157597" d="M82.685,22.845c-0.017-0.224-0.048-0.464-0.064-0.687
				c-0.017-0.12-0.032-0.223-0.049-0.343c-0.052-0.377-0.114-0.754-0.182-1.132c-0.014-0.051-0.014-0.12-0.029-0.171
				c0-0.034-0.017-0.069-0.017-0.104c-0.05-0.239-0.101-0.462-0.149-0.702c-0.065-0.274-0.113-0.531-0.179-0.806
				c-0.017-0.103-0.049-0.188-0.079-0.292c-0.035-0.103-0.052-0.188-0.083-0.291c-0.05-0.206-0.115-0.395-0.163-0.583
				c-0.033-0.085-0.049-0.171-0.084-0.258c-0.032-0.085-0.063-0.188-0.081-0.273c-0.031-0.086-0.063-0.189-0.098-0.274
				c-0.063-0.172-0.11-0.343-0.179-0.514c-0.032-0.103-0.064-0.188-0.113-0.291c-0.244-0.652-0.523-1.287-0.813-1.903
				c-0.051-0.085-0.084-0.171-0.133-0.257c-0.131-0.258-0.244-0.498-0.39-0.754c-0.049-0.086-0.099-0.171-0.13-0.257
				c-0.035-0.068-0.085-0.137-0.114-0.223c-0.049-0.084-0.101-0.154-0.148-0.24c-0.05-0.068-0.08-0.137-0.131-0.206
				c-0.032-0.051-0.065-0.12-0.098-0.171c-0.017-0.016-0.032-0.033-0.032-0.068c-0.033-0.052-0.065-0.121-0.113-0.172
				c-0.082-0.137-0.18-0.274-0.261-0.411c-0.049-0.086-0.101-0.154-0.165-0.24c-0.114-0.171-0.244-0.359-0.374-0.531
				c-0.033-0.052-0.065-0.086-0.098-0.137c-0.064-0.086-0.129-0.189-0.195-0.274c-0.064-0.085-0.113-0.154-0.179-0.24
				c-0.214-0.275-0.425-0.549-0.653-0.806L71.71,13.64c-1.285-1.475-2.836-2.709-4.531-3.618l2.576-6.65
				c-0.099-0.052-0.198-0.103-0.293-0.155c-0.098-0.051-0.18-0.085-0.279-0.137c-0.017-0.017-0.049-0.017-0.064-0.034
				c-0.099-0.051-0.212-0.104-0.31-0.137c-0.098-0.034-0.18-0.085-0.279-0.121c-0.095-0.05-0.191-0.085-0.308-0.136
				c-0.049-0.017-0.098-0.035-0.146-0.052c-0.26-0.103-0.539-0.205-0.797-0.309C67.21,2.275,67.146,2.24,67.08,2.223
				c-0.064-0.017-0.129-0.051-0.194-0.068s-0.131-0.052-0.195-0.068c-0.067-0.017-0.134-0.052-0.198-0.068
				c-0.357-0.12-0.715-0.223-1.06-0.309c-0.079-0.017-0.179-0.052-0.277-0.068c-0.097-0.018-0.179-0.052-0.275-0.069
				c-0.066-0.017-0.13-0.034-0.213-0.051c-0.13-0.035-0.245-0.051-0.375-0.086c-0.08-0.017-0.163-0.034-0.244-0.051
				c-0.523-0.102-1.045-0.188-1.566-0.24c-0.063,0-0.146-0.017-0.21-0.017c-0.084,0-0.164-0.018-0.247-0.018
				c-0.065,0-0.13-0.018-0.195-0.018c-0.097,0-0.178-0.016-0.277-0.016c-0.064,0-0.131-0.018-0.194-0.018
				c-0.049,0-0.099,0-0.146-0.017c-0.457-0.034-0.915-0.034-1.37-0.034v9.976c6.586,0,12.344,5.125,13.256,12.17
				c0.994,7.679-4.142,14.793-11.445,15.839c-0.604,0.085-1.209,0.136-1.811,0.136v9.977c0.327,0,0.668-0.018,0.995-0.018
				c0.277-0.018,0.553-0.033,0.815-0.049c0.422-0.036,0.846-0.087,1.271-0.139c0.147-0.016,0.278-0.033,0.424-0.069
				c0.066-0.017,0.146-0.017,0.213-0.034h0.017c0.031,0,0.048-0.016,0.081-0.016h0.017c0.097-0.02,0.179-0.035,0.276-0.052
				c0.099-0.018,0.196-0.033,0.311-0.068c0.017,0,0.032,0,0.032,0l-0.946-7.098c1.908-0.445,3.67-1.251,5.233-2.331l4.191,5.674
				c0.098-0.067,0.18-0.137,0.276-0.205c0.064-0.052,0.149-0.104,0.214-0.155c0.21-0.152,0.406-0.327,0.603-0.48
				c0.081-0.067,0.162-0.138,0.244-0.203c0.196-0.157,0.376-0.327,0.555-0.481c0.065-0.069,0.148-0.139,0.213-0.206
				c0.193-0.171,0.375-0.359,0.554-0.531c0.114-0.121,0.228-0.224,0.344-0.342c0.111-0.121,0.228-0.241,0.342-0.36l0.13-0.138
				c0.065-0.069,0.13-0.137,0.195-0.225c0.049-0.066,0.114-0.118,0.162-0.188c0.065-0.068,0.133-0.136,0.198-0.223
				c0.423-0.496,0.813-0.992,1.207-1.525c0.081-0.12,0.177-0.239,0.258-0.377c0.05-0.07,0.099-0.155,0.149-0.225
				c0.098-0.153,0.193-0.29,0.293-0.444c0.097-0.137,0.179-0.274,0.26-0.429c0.017-0.016,0.017-0.033,0.033-0.049
				c0.048-0.087,0.098-0.173,0.162-0.258c0.082-0.139,0.165-0.259,0.23-0.395c0.033-0.053,0.063-0.104,0.096-0.173
				c0.049-0.085,0.081-0.152,0.13-0.239c0.052-0.088,0.083-0.153,0.133-0.242c0.064-0.137,0.146-0.271,0.211-0.39
				c0.032-0.069,0.065-0.14,0.097-0.21v-0.015c0.082-0.154,0.147-0.309,0.229-0.465c0.05-0.101,0.1-0.206,0.132-0.291
				c0,0,0,0,0-0.016v-0.018c0.029-0.069,0.048-0.12,0.081-0.189c0.017-0.016,0.017-0.05,0.03-0.067
				c0.049-0.12,0.116-0.258,0.166-0.378c0.048-0.103,0.08-0.205,0.13-0.325c0.048-0.104,0.081-0.207,0.13-0.325
				c0.129-0.326,0.244-0.65,0.36-0.994c0.032-0.103,0.078-0.225,0.11-0.327l-6.327-2.709c0.556-1.867,0.818-3.873,0.705-5.929
				l6.747-0.977C82.701,23.084,82.685,22.964,82.685,22.845z"/>
			<path id="XMLID_41_" display="none" fill="#E3E0E3" d="M69.381,35.032c-2.528,2.655-5.889,4.114-9.46,4.114V11
				c3.571,0,6.932,1.457,9.46,4.114c2.525,2.657,3.912,6.188,3.912,9.942C73.293,28.809,71.906,32.377,69.381,35.032z"/>
			<path id="XMLID_40_" display="none" fill="#157597" d="M82.782,25.073c0,0.119,0,0.223,0,0.342c0,0.224-0.017,0.464-0.017,0.686
				c0,0.12-0.016,0.223-0.016,0.344l-6.814,0.017c-0.163,2.059-0.67,3.995-1.471,5.776l5.923,3.583
				c-0.05,0.103-0.1,0.203-0.149,0.308c-0.146,0.31-0.309,0.618-0.487,0.927c-0.05,0.103-0.116,0.206-0.166,0.309
				c-0.063,0.104-0.113,0.206-0.178,0.291c-0.063,0.12-0.146,0.24-0.213,0.359c-0.016,0.019-0.032,0.036-0.032,0.069
				c-0.032,0.052-0.064,0.121-0.114,0.17v0.02c0,0,0,0,0,0.016c-0.064,0.085-0.113,0.188-0.178,0.272
				c-0.098,0.14-0.18,0.275-0.279,0.414c0,0,0,0.018-0.017,0.018c-0.049,0.067-0.081,0.118-0.13,0.188
				c-0.081,0.121-0.18,0.239-0.261,0.36c-0.048,0.066-0.112,0.151-0.164,0.221c-0.048,0.07-0.111,0.14-0.16,0.224
				c-0.032,0.052-0.081,0.106-0.113,0.154c-0.101,0.121-0.18,0.242-0.279,0.363c-0.065,0.085-0.13,0.154-0.195,0.239
				c-0.017,0.016-0.017,0.033-0.033,0.033c-0.097,0.138-0.211,0.258-0.325,0.378c-0.113,0.136-0.229,0.257-0.343,0.393
				c-0.065,0.069-0.114,0.138-0.178,0.206c-0.1,0.121-0.213,0.224-0.313,0.326c-0.439,0.463-0.91,0.926-1.385,1.336
				c-0.064,0.07-0.146,0.121-0.211,0.191c-0.065,0.048-0.13,0.1-0.18,0.154c-0.08,0.065-0.146,0.117-0.229,0.188l-0.146,0.118
				c-0.128,0.105-0.244,0.208-0.374,0.309c-0.13,0.104-0.261,0.207-0.391,0.293c-0.213,0.154-0.409,0.309-0.62,0.446
				c-0.081,0.05-0.163,0.101-0.244,0.171c-0.198,0.136-0.407,0.274-0.62,0.395c-0.098,0.05-0.179,0.118-0.276,0.171
				c-0.214,0.138-0.441,0.274-0.669,0.395c-0.081,0.05-0.146,0.085-0.228,0.134c-0.098,0.054-0.198,0.106-0.296,0.157l-3.422-6.208
				c-1.697,0.842-3.539,1.392-5.496,1.563l0.017,7.164c-0.017,0-0.033,0-0.05,0c-0.096,0-0.212,0.016-0.311,0.016
				c-0.097,0-0.194,0-0.275,0.018h-0.017c-0.033,0-0.05,0-0.083,0h-0.017c-0.065,0-0.146,0-0.228,0c-0.146,0-0.278,0-0.425,0v-9.959
				c7.389,0,13.388-6.307,13.388-14.072s-5.999-14.073-13.388-14.073V1.041c0.115,0,0.23,0,0.327,0c0.049,0,0.115,0,0.163,0
				c0.047,0,0.114,0,0.163,0c0.132,0,0.278,0.017,0.408,0.017c0.049,0,0.098,0,0.13,0c0.051,0,0.099,0,0.132,0
				c0.193,0.018,0.392,0.018,0.571,0.034c0.079,0,0.145,0.018,0.226,0.018l0,0c0.214,0.018,0.426,0.052,0.637,0.07
				c0.066,0,0.131,0.016,0.195,0.034c0.489,0.069,0.98,0.154,1.453,0.257c0.05,0.017,0.097,0.017,0.146,0.034
				c0.064,0.017,0.131,0.034,0.179,0.034c0.084,0.017,0.18,0.034,0.261,0.068c0.066,0.017,0.131,0.035,0.196,0.051
				c0.082,0.017,0.163,0.035,0.228,0.052c0.065,0.017,0.131,0.035,0.212,0.052c0.507,0.137,1.026,0.291,1.518,0.462
				c0.081,0.035,0.162,0.052,0.23,0.085c0.111,0.035,0.241,0.087,0.357,0.138c0.065,0.017,0.13,0.051,0.196,0.068
				c0.08,0.034,0.178,0.068,0.26,0.103c0.081,0.035,0.181,0.069,0.26,0.104c0.344,0.137,0.685,0.292,1.013,0.462
				c0.064,0.034,0.128,0.052,0.177,0.086c0.067,0.035,0.132,0.069,0.182,0.086c0.064,0.034,0.13,0.068,0.179,0.085
				c0.064,0.035,0.131,0.069,0.179,0.103c0.263,0.138,0.507,0.274,0.767,0.412c0.052,0.017,0.082,0.051,0.131,0.068
				c0.097,0.051,0.195,0.12,0.295,0.172c0.079,0.052,0.161,0.103,0.258,0.155c0.099,0.068,0.196,0.12,0.295,0.188
				c0.016,0.018,0.05,0.035,0.066,0.052c0.079,0.05,0.161,0.103,0.242,0.171c0.1,0.069,0.182,0.12,0.278,0.189l-3.407,6.222
				c1.565,1.149,2.934,2.572,4.025,4.218l5.921-3.601c0.179,0.292,0.357,0.6,0.537,0.892c0.051,0.085,0.097,0.171,0.146,0.257
				c0.05,0.103,0.116,0.188,0.165,0.292c0.031,0.051,0.048,0.103,0.081,0.154c0.098,0.188,0.194,0.378,0.293,0.583
				c0.048,0.085,0.081,0.171,0.133,0.257c0.064,0.137,0.128,0.292,0.211,0.445c0.032,0.069,0.063,0.138,0.079,0.189
				c0.016,0.017,0.016,0.051,0.032,0.068c0.035,0.069,0.052,0.121,0.083,0.189c0.033,0.068,0.065,0.154,0.099,0.223
				c0.032,0.086,0.064,0.17,0.114,0.257c0.032,0.085,0.064,0.155,0.097,0.24c0.033,0.086,0.064,0.188,0.098,0.274
				c0.098,0.257,0.198,0.531,0.295,0.788c0.033,0.086,0.065,0.188,0.097,0.274c0.212,0.652,0.407,1.32,0.57,2.006
				c0.017,0.103,0.048,0.206,0.064,0.308c0.033,0.172,0.082,0.36,0.116,0.531c0.017,0.104,0.032,0.189,0.049,0.292
				s0.033,0.189,0.05,0.292c0.016,0.085,0.029,0.171,0.048,0.256c0.032,0.206,0.065,0.412,0.099,0.618
				c0.013,0.103,0.031,0.188,0.031,0.292c0.015,0.103,0.033,0.188,0.033,0.291c0.032,0.274,0.065,0.548,0.081,0.823
				c0.016,0.239,0.032,0.479,0.049,0.72c0,0.033,0,0.068,0,0.103c0,0.068,0,0.12,0.017,0.189
				C82.766,24.3,82.782,24.697,82.782,25.073z"/>
			<path id="XMLID_39_" fill="#E8E3DD" d="M55.992,46.979c-0.293-0.036-0.489-0.308-0.457-0.617
				c0.033-0.308,0.294-0.513,0.586-0.479c0.294,0.036,0.491,0.326,0.458,0.619C56.546,46.809,56.286,47.012,55.992,46.979z"/>
			<path id="XMLID_38_" fill="#E8E3DD" d="M59.318,46.942c-0.032,0.31-0.309,0.518-0.604,0.466
				c-0.293-0.051-0.488-0.309-0.456-0.617c0.032-0.308,0.294-0.515,0.587-0.48C59.139,46.361,59.351,46.637,59.318,46.942z"/>
			<path id="XMLID_37_" fill="#E8E3DD" d="M59.091,44.666c-0.294-0.052-0.489-0.326-0.424-0.635c0.048-0.31,0.31-0.497,0.603-0.445
				c0.278,0.052,0.489,0.341,0.441,0.632C59.66,44.512,59.384,44.718,59.091,44.666z"/>
			<g id="derecha_2_" display="none">
				<path id="XMLID_36_" display="inline" fill="#E8E3DD" d="M78.87,17.72c-0.05,0.308-0.326,0.496-0.621,0.445
					c-0.292-0.052-0.487-0.326-0.422-0.634c0.049-0.309,0.325-0.498,0.617-0.447C78.724,17.119,78.918,17.411,78.87,17.72z"/>
				<path id="XMLID_35_" display="inline" fill="#E8E3DD" d="M80.647,18.593c-0.051,0.309-0.325,0.498-0.62,0.446
					c-0.293-0.052-0.488-0.343-0.442-0.634c0.05-0.308,0.328-0.497,0.604-0.445C80.501,18.011,80.697,18.302,80.647,18.593z"/>
				<path id="XMLID_34_" display="inline" fill="#E8E3DD" d="M76.554,17.462c-0.293-0.051-0.49-0.326-0.439-0.634
					c0.049-0.309,0.31-0.514,0.602-0.463c0.295,0.051,0.491,0.343,0.441,0.633C77.125,17.308,76.846,17.497,76.554,17.462z"/>
				<path id="XMLID_33_" display="inline" fill="#E8E3DD" d="M77.566,37.089c0.293,0.053,0.488,0.344,0.44,0.634
					c-0.05,0.291-0.328,0.499-0.605,0.445c-0.293-0.049-0.488-0.342-0.438-0.633C77.011,37.227,77.288,37.037,77.566,37.089z"/>
				<path id="XMLID_32_" display="inline" fill="#E8E3DD" d="M73.587,38.614c-0.294-0.069-0.459-0.361-0.391-0.668
					c0.064-0.274,0.341-0.479,0.604-0.411c0.274,0.052,0.473,0.359,0.424,0.65C74.174,38.496,73.896,38.685,73.587,38.614z"/>
				<path id="XMLID_31_" display="inline" fill="#E8E3DD" d="M63.167,5.549c-0.294-0.051-0.489-0.309-0.439-0.617
					c0.048-0.31,0.309-0.515,0.603-0.463c0.293,0.052,0.489,0.326,0.439,0.634C63.739,5.395,63.46,5.6,63.167,5.549z"/>
			</g>
			<path id="XMLID_30_" fill="#E8E3DD" d="M56.988,43.773c-0.05,0.291-0.31,0.515-0.604,0.464c-0.292-0.052-0.489-0.311-0.44-0.633
				c0.049-0.312,0.31-0.518,0.603-0.464C56.824,43.19,57.019,43.465,56.988,43.773z"/>
			<path id="XMLID_29_" fill="#E8E3DD" d="M59.074,44.958c0.293,0.05,0.489,0.341,0.44,0.633c-0.049,0.291-0.326,0.498-0.604,0.445
				c-0.292-0.05-0.472-0.325-0.423-0.633C58.52,45.095,58.781,44.905,59.074,44.958z"/>
			<path id="XMLID_28_" fill="#E8E3DD" d="M56.172,45.608c-0.293-0.051-0.473-0.325-0.424-0.634s0.309-0.497,0.603-0.447
				c0.293,0.053,0.489,0.344,0.44,0.635C56.726,45.455,56.465,45.658,56.172,45.608z"/>
			<path id="XMLID_27_" display="none" fill="#3F3C43" d="M68.383,28.98c-1.335,2.28-3.178,2.778-4.498,2.778
				c-0.685,0-1.371-0.122-2.022-0.359c0.146,0.615,0.325,0.956,0.488,1.08l0.245,0.169v1.679h-5.331v-1.679l0.244-0.169
				c0.164-0.124,0.342-0.444,0.49-1.08c-0.653,0.237-1.337,0.375-2.022,0.359c-1.321-0.018-3.18-0.498-4.501-2.778
				c-1.076-1.835-1.092-4.028-0.082-5.981c0.784-1.509,2.007-2.726,3.196-3.892c0.213-0.206,0.408-0.394,0.604-0.6
				c0.733-0.736,1.467-1.457,2.185-2.142c0.717-0.687,1.451-1.389,2.168-2.125l0.391-0.395l0.393,0.395
				c0.717,0.736,1.451,1.439,2.167,2.125c0.721,0.685,1.452,1.406,2.188,2.142c0.195,0.189,0.39,0.395,0.602,0.6
				c1.174,1.166,2.398,2.383,3.194,3.892C69.476,24.971,69.443,27.146,68.383,28.98z"/>
			<path id="XMLID_26_" display="none" fill="#18181B" d="M68.383,28.98c-1.335,2.28-3.178,2.778-4.498,2.778
				c-0.685,0-1.371-0.122-2.022-0.359c0.146,0.615,0.325,0.956,0.488,1.08l0.245,0.169v1.679h-2.658V13.845l0.393,0.395
				c0.717,0.736,1.451,1.439,2.167,2.125c0.721,0.685,1.452,1.406,2.188,2.142c0.195,0.189,0.39,0.395,0.602,0.6
				c1.174,1.166,2.398,2.383,3.194,3.892C69.476,24.971,69.443,27.146,68.383,28.98z"/>
			<path id="XMLID_25_" display="none" fill="#3F3C43" d="M66.316,27.8c-1.015,1.729-2.416,2.091-3.412,2.106
				c-0.521,0-1.042-0.085-1.53-0.275c0.113,0.481,0.245,0.721,0.358,0.825l0.178,0.137v1.267h-4.027v-1.267l0.18-0.137
				c0.113-0.087,0.26-0.344,0.358-0.825c-0.489,0.19-1.011,0.275-1.533,0.275c-0.994,0-2.396-0.377-3.407-2.106
				c-0.815-1.391-0.832-3.037-0.065-4.526c0.604-1.149,1.517-2.058,2.414-2.949c0.163-0.154,0.309-0.309,0.456-0.446
				c0.554-0.566,1.109-1.097,1.664-1.611c0.538-0.514,1.092-1.045,1.646-1.611l0.293-0.309l0.295,0.309
				c0.538,0.549,1.108,1.08,1.646,1.611c0.538,0.514,1.109,1.063,1.663,1.611c0.147,0.155,0.294,0.292,0.457,0.446
				c0.897,0.892,1.812,1.8,2.413,2.949C67.146,24.748,67.129,26.409,66.316,27.8z"/>
			<path id="XMLID_24_" display="none" fill="#18181B" d="M66.316,27.8c-1.015,1.729-2.416,2.091-3.412,2.106
				c-0.521,0-1.042-0.085-1.53-0.275c0.113,0.481,0.245,0.721,0.358,0.825l0.178,0.137v1.267h-2.022V16.365l0.295,0.308
				c0.538,0.549,1.108,1.08,1.646,1.611c0.538,0.514,1.109,1.063,1.663,1.612c0.147,0.153,0.294,0.291,0.457,0.445
				c0.897,0.892,1.812,1.8,2.413,2.949C67.146,24.748,67.129,26.409,66.316,27.8z"/>
			<path id="XMLID_23_" fill="#E8E3DD" d="M44.301,32.891c0.277,0.052,0.489,0.34,0.44,0.633c-0.049,0.309-0.326,0.516-0.603,0.463
				c-0.293-0.052-0.489-0.325-0.44-0.633C43.747,33.042,44.008,32.84,44.301,32.891z"/>
			<path id="XMLID_22_" fill="#E8E3DD" d="M42.214,34.569c-0.05,0.308-0.31,0.514-0.604,0.463c-0.293-0.053-0.489-0.309-0.44-0.636
				c0.049-0.308,0.31-0.513,0.604-0.462C42.051,34.004,42.246,34.278,42.214,34.569z"/>
			<path id="XMLID_21_" fill="#E8E3DD" d="M43.796,30.868c-0.049,0.292-0.327,0.495-0.62,0.443
				c-0.293-0.051-0.472-0.341-0.424-0.634c0.049-0.309,0.31-0.497,0.604-0.444C43.649,30.284,43.845,30.574,43.796,30.868z"/>
			<g id="derecha_4_" display="none">
				<path id="XMLID_80_" display="inline" fill="#E8E3DD" d="M78.87,17.72c-0.05,0.308-0.326,0.496-0.621,0.445
					c-0.292-0.052-0.487-0.326-0.422-0.634c0.049-0.309,0.325-0.498,0.617-0.447C78.724,17.119,78.918,17.411,78.87,17.72z"/>
				<path id="XMLID_79_" display="inline" fill="#E8E3DD" d="M80.647,18.593c-0.051,0.309-0.325,0.498-0.62,0.446
					c-0.293-0.052-0.488-0.343-0.442-0.634c0.05-0.308,0.328-0.497,0.604-0.445C80.501,18.011,80.697,18.302,80.647,18.593z"/>
				<path id="XMLID_78_" display="inline" fill="#E8E3DD" d="M76.554,17.462c-0.293-0.051-0.49-0.326-0.439-0.634
					c0.049-0.309,0.31-0.514,0.602-0.463c0.295,0.051,0.491,0.343,0.441,0.633C77.125,17.308,76.846,17.497,76.554,17.462z"/>
				<path id="XMLID_77_" display="inline" fill="#E8E3DD" d="M77.566,37.089c0.293,0.053,0.488,0.344,0.44,0.634
					c-0.05,0.291-0.328,0.499-0.605,0.445c-0.293-0.049-0.488-0.342-0.438-0.633C77.011,37.227,77.288,37.037,77.566,37.089z"/>
				<path id="XMLID_68_" display="inline" fill="#E8E3DD" d="M73.587,38.614c-0.294-0.069-0.459-0.361-0.391-0.668
					c0.064-0.274,0.341-0.479,0.604-0.411c0.274,0.052,0.473,0.359,0.424,0.65C74.174,38.496,73.896,38.685,73.587,38.614z"/>
				<path id="XMLID_66_" display="inline" fill="#E8E3DD" d="M63.167,5.549c-0.294-0.051-0.489-0.309-0.439-0.617
					c0.048-0.31,0.309-0.515,0.603-0.463c0.293,0.052,0.489,0.326,0.439,0.634C63.739,5.395,63.46,5.6,63.167,5.549z"/>
			</g>
			<path id="XMLID_20_" fill="#E3E0E3" d="M77.566,37.089c0.293,0.053,0.488,0.344,0.44,0.634c-0.05,0.291-0.328,0.499-0.605,0.445
				c-0.293-0.049-0.488-0.342-0.438-0.633C77.011,37.227,77.288,37.037,77.566,37.089z"/>
			<path id="XMLID_19_" fill="#E3E0E3" d="M73.587,38.614c-0.294-0.069-0.459-0.361-0.391-0.668
				c0.064-0.274,0.341-0.479,0.604-0.411c0.274,0.052,0.473,0.359,0.424,0.65C74.174,38.496,73.896,38.685,73.587,38.614z"/>
			<path id="XMLID_18_" fill="#E8E3DD" d="M40.828,31.294c0.277,0.052,0.473,0.343,0.424,0.635
				c-0.049,0.293-0.326,0.496-0.621,0.448c-0.292-0.055-0.473-0.327-0.423-0.636C40.258,31.434,40.535,31.245,40.828,31.294z"/>
			<g id="derecha_5_" display="none">
				<path id="XMLID_89_" display="inline" fill="#E8E3DD" d="M78.655,17.222c-0.048,0.309-0.307,0.498-0.601,0.463
					c-0.293-0.052-0.488-0.327-0.442-0.635c0.05-0.309,0.313-0.514,0.604-0.462C78.493,16.639,78.69,16.913,78.655,17.222z"/>
				<path id="XMLID_88_" display="inline" fill="#E8E3DD" d="M80.468,18.063c-0.048,0.308-0.311,0.513-0.604,0.462
					c-0.295-0.052-0.488-0.326-0.438-0.617c0.046-0.308,0.309-0.515,0.602-0.462C80.307,17.479,80.501,17.753,80.468,18.063z"/>
				<path id="XMLID_87_" display="inline" fill="#E8E3DD" d="M76.342,17.016c-0.293-0.034-0.49-0.308-0.458-0.617
					c0.052-0.308,0.296-0.514,0.588-0.479c0.295,0.034,0.491,0.325,0.458,0.617C76.897,16.862,76.635,17.067,76.342,17.016z"/>
				<path id="XMLID_86_" display="inline" fill="#E8E3DD" d="M77.844,36.625c0.292,0.051,0.486,0.327,0.454,0.617
					c-0.033,0.293-0.308,0.515-0.604,0.465c-0.293-0.035-0.504-0.328-0.456-0.618C77.288,36.778,77.548,36.573,77.844,36.625z"/>
				<path id="XMLID_85_" display="inline" fill="#E8E3DD" d="M73.896,38.253c-0.293-0.049-0.472-0.343-0.406-0.65
					c0.064-0.273,0.327-0.479,0.602-0.427c0.279,0.051,0.49,0.342,0.442,0.634C74.465,38.119,74.19,38.322,73.896,38.253z"/>
				<path id="XMLID_84_" display="inline" fill="#E8E3DD" d="M62.678,5.48c-0.295-0.034-0.49-0.308-0.457-0.617
					c0.031-0.309,0.293-0.514,0.588-0.48c0.293,0.035,0.488,0.31,0.457,0.617C63.232,5.309,62.972,5.515,62.678,5.48z"/>
			</g>
			<path id="XMLID_17_" fill="#E3E0E3" d="M78.655,17.222c-0.048,0.309-0.307,0.498-0.601,0.463
				c-0.293-0.052-0.488-0.327-0.442-0.635c0.05-0.309,0.313-0.514,0.604-0.462C78.493,16.639,78.69,16.913,78.655,17.222z"/>
			<path id="XMLID_14_" fill="#E3E0E3" d="M80.468,18.063c-0.048,0.308-0.311,0.513-0.604,0.462
				c-0.295-0.052-0.488-0.326-0.438-0.617c0.046-0.308,0.309-0.515,0.602-0.462C80.307,17.479,80.501,17.753,80.468,18.063z"/>
			<path id="XMLID_12_" fill="#E3E0E3" d="M76.342,17.016c-0.293-0.034-0.49-0.308-0.458-0.617c0.052-0.308,0.296-0.514,0.588-0.479
				c0.295,0.034,0.491,0.325,0.458,0.617C76.897,16.862,76.635,17.067,76.342,17.016z"/>
			<path id="XMLID_11_" fill="#E8E3DD" d="M42.883,14c-0.293-0.034-0.506-0.309-0.473-0.618c0.032-0.291,0.31-0.531,0.586-0.497
				c0.277,0.035,0.506,0.326,0.473,0.617C43.437,13.829,43.176,14.034,42.883,14z"/>
			<path id="XMLID_10_" fill="#E8E3DD" d="M45.052,15.714c-0.294-0.035-0.506-0.31-0.474-0.6c0.032-0.309,0.293-0.531,0.571-0.497
				c0.292,0.034,0.505,0.291,0.473,0.6C45.589,15.524,45.328,15.749,45.052,15.714z"/>
			<path id="XMLID_9_" fill="#E8E3DD" d="M45.361,13.194c-0.033,0.308-0.293,0.531-0.587,0.496
				c-0.293-0.033-0.505-0.309-0.473-0.617c0.033-0.291,0.31-0.531,0.586-0.498C45.165,12.611,45.394,12.885,45.361,13.194z"/>
			<path id="XMLID_8_" fill="#E8E3DD" d="M44.497,11.686c-0.293-0.035-0.505-0.292-0.473-0.6c0.016-0.292,0.293-0.532,0.57-0.497
				c0.292,0.034,0.505,0.291,0.473,0.6C45.052,11.497,44.79,11.703,44.497,11.686z"/>
			<g id="derecha_6_" display="none">
				<path id="XMLID_98_" display="inline" fill="#E8E3DD" d="M78.544,16.948c-0.032,0.309-0.311,0.515-0.604,0.463
					c-0.295-0.053-0.489-0.31-0.457-0.618c0.048-0.308,0.311-0.514,0.604-0.462C78.363,16.365,78.574,16.656,78.544,16.948z"/>
				<path id="XMLID_97_" display="inline" fill="#E8E3DD" d="M80.354,17.771c-0.032,0.309-0.311,0.514-0.588,0.479
					c-0.295-0.035-0.506-0.326-0.458-0.617c0.049-0.308,0.293-0.514,0.589-0.48C80.189,17.188,80.401,17.462,80.354,17.771z"/>
				<path id="XMLID_96_" display="inline" fill="#E8E3DD" d="M76.228,16.793c-0.292-0.034-0.507-0.308-0.455-0.617
					c0.033-0.308,0.291-0.514,0.585-0.479c0.294,0.034,0.488,0.308,0.476,0.617C76.783,16.605,76.521,16.828,76.228,16.793z"/>
				<path id="XMLID_95_" display="inline" fill="#E8E3DD" d="M77.972,36.368c0.293,0.033,0.489,0.308,0.458,0.62
					c-0.031,0.29-0.294,0.512-0.586,0.479c-0.296-0.034-0.507-0.325-0.456-0.617C77.418,36.522,77.679,36.316,77.972,36.368z"/>
				<path id="XMLID_94_" display="inline" fill="#E8E3DD" d="M74.058,38.05c-0.293-0.053-0.471-0.343-0.406-0.651
					c0.049-0.274,0.328-0.479,0.588-0.446c0.277,0.052,0.488,0.342,0.439,0.635C74.63,37.91,74.354,38.119,74.058,38.05z"/>
				<path id="XMLID_93_" display="inline" fill="#E8E3DD" d="M62.399,5.446c-0.292-0.034-0.505-0.292-0.471-0.6
					c0.03-0.31,0.275-0.532,0.585-0.497c0.295,0.033,0.506,0.308,0.473,0.617C62.955,5.274,62.694,5.48,62.399,5.446z"/>
			</g>
			<path id="XMLID_7_" fill="#E3E0E3" d="M62.351,5.429c-0.294-0.035-0.505-0.292-0.473-0.6c0.032-0.308,0.278-0.532,0.587-0.498
				c0.295,0.034,0.507,0.308,0.474,0.618C62.904,5.24,62.646,5.463,62.351,5.429z"/>
			<path id="XMLID_6_" fill="#E8E3DD" d="M46.747,12.303c0.294,0.034,0.506,0.292,0.473,0.6c-0.032,0.292-0.293,0.514-0.587,0.497
				c-0.294-0.034-0.505-0.309-0.473-0.6C46.209,12.491,46.469,12.269,46.747,12.303z"/>
		</g>
		<g id="XMLID_52_">
			<path id="XMLID_59_" fill="#181818" d="M1.172,29.821v-9.342c0-0.188,0.065-0.36,0.195-0.497
				c0.131-0.137,0.294-0.206,0.474-0.206h8.233c0.18,0,0.343,0.069,0.473,0.206c0.131,0.137,0.197,0.309,0.197,0.497v0.703
				c0,0.189-0.066,0.36-0.197,0.498c-0.129,0.137-0.292,0.206-0.473,0.206H3.878v2.177h5.349c0.179,0,0.342,0.068,0.473,0.206
				c0.13,0.137,0.196,0.308,0.196,0.496v0.703c0,0.189-0.065,0.361-0.196,0.498c-0.131,0.137-0.293,0.206-0.473,0.206H3.878v2.211
				h6.196c0.18,0,0.343,0.07,0.457,0.206c0.131,0.137,0.195,0.31,0.195,0.497v0.722c0,0.188-0.064,0.357-0.195,0.497
				c-0.13,0.136-0.294,0.203-0.473,0.203H1.857c-0.179,0-0.342-0.067-0.472-0.203C1.254,30.197,1.172,30.027,1.172,29.821z"/>
			<path id="XMLID_73_" fill="#181818" d="M12.081,29.84v-9.343c0-0.189,0.065-0.36,0.196-0.498c0.13-0.137,0.293-0.206,0.473-0.206
				h2.103c0.164,0,0.342,0.068,0.522,0.206s0.343,0.308,0.456,0.498l4.305,6.976v-6.994c0-0.188,0.066-0.36,0.197-0.497
				c0.13-0.137,0.292-0.206,0.472-0.206h1.224c0.179,0,0.341,0.069,0.471,0.206c0.131,0.137,0.197,0.309,0.197,0.515v9.343
				c0,0.188-0.066,0.357-0.197,0.496c-0.13,0.136-0.292,0.205-0.471,0.205h-2.366c-0.179,0-0.375-0.069-0.571-0.205
				c-0.195-0.139-0.342-0.309-0.457-0.496l-3.945-6.447v6.447c0,0.188-0.066,0.357-0.196,0.496c-0.13,0.136-0.293,0.205-0.473,0.205
				h-1.255c-0.18,0-0.343-0.069-0.473-0.205C12.146,30.197,12.081,30.027,12.081,29.84z"/>
			<path id="XMLID_75_" fill="#181818" d="M24.751,29.84v-9.343c0-0.206,0.065-0.377,0.195-0.515
				c0.13-0.137,0.294-0.206,0.473-0.206h3.995c2.071,0,3.571,0.429,4.517,1.303c0.945,0.875,1.402,2.229,1.402,4.08
				c0,1.852-0.474,3.205-1.402,4.08c-0.946,0.874-2.446,1.303-4.517,1.303h-3.995c-0.179,0-0.343-0.069-0.473-0.205
				C24.816,30.197,24.751,30.043,24.751,29.84z M27.44,28.416h1.892c1.289,0,2.153-0.24,2.608-0.739
				c0.458-0.497,0.686-1.336,0.686-2.519s-0.229-2.022-0.686-2.52c-0.456-0.497-1.336-0.737-2.608-0.737H27.44V28.416z"/>
			<path id="XMLID_83_" fill="#181818" d="M84.937,29.821v-9.342c0-0.188,0.063-0.36,0.192-0.497
				c0.133-0.137,0.296-0.206,0.474-0.206h8.235c0.182,0,0.343,0.069,0.475,0.206c0.13,0.137,0.195,0.309,0.195,0.497v0.703
				c0,0.189-0.065,0.36-0.195,0.498c-0.132,0.137-0.293,0.206-0.475,0.206h-6.212v2.177h5.35c0.18,0,0.343,0.068,0.472,0.206
				c0.13,0.137,0.193,0.308,0.193,0.496v0.703c0,0.189-0.063,0.361-0.193,0.498c-0.129,0.137-0.292,0.206-0.472,0.206h-5.35v2.211
				h6.212c0.182,0,0.343,0.07,0.458,0.206c0.131,0.137,0.195,0.31,0.195,0.497v0.722c0,0.188-0.064,0.357-0.195,0.497
				c-0.132,0.136-0.293,0.203-0.475,0.203h-8.202c-0.179,0-0.342-0.067-0.474-0.203C84.999,30.197,84.937,30.027,84.937,29.821z"/>
			<path id="XMLID_91_" fill="#181818" d="M95.827,29.84v-9.343c0-0.189,0.064-0.36,0.194-0.498s0.296-0.206,0.475-0.206h2.103
				c0.162,0,0.344,0.068,0.522,0.206c0.18,0.137,0.343,0.308,0.456,0.498l4.306,6.976v-6.994c0-0.188,0.065-0.36,0.195-0.497
				s0.291-0.206,0.473-0.206h1.224c0.178,0,0.341,0.069,0.472,0.206c0.132,0.137,0.196,0.309,0.196,0.515v9.343
				c0,0.188-0.064,0.357-0.196,0.496c-0.131,0.136-0.294,0.205-0.472,0.205h-2.363c-0.182,0-0.377-0.069-0.572-0.205
				c-0.195-0.139-0.342-0.309-0.457-0.496l-3.945-6.447v6.447c0,0.188-0.065,0.357-0.196,0.496
				c-0.132,0.136-0.293,0.205-0.473,0.205h-1.255c-0.18,0-0.345-0.069-0.475-0.205C95.892,30.197,95.827,30.027,95.827,29.84z"/>
			<path id="XMLID_99_" fill="#181818" d="M108.513,29.84v-9.343c0-0.206,0.065-0.377,0.195-0.515
				c0.131-0.137,0.295-0.206,0.475-0.206h3.994c2.07,0,3.571,0.429,4.517,1.303c0.946,0.875,1.403,2.229,1.403,4.08
				c0,1.852-0.474,3.205-1.403,4.08c-0.945,0.874-2.446,1.303-4.517,1.303h-3.994c-0.18,0-0.344-0.069-0.475-0.205
				C108.578,30.197,108.513,30.043,108.513,29.84z M111.205,28.416h1.891c1.287,0,2.151-0.24,2.608-0.739
				c0.456-0.497,0.684-1.336,0.684-2.519s-0.228-2.022-0.684-2.52c-0.457-0.497-1.338-0.737-2.608-0.737h-1.891V28.416z"/>
		</g>
		<g id="XMLID_102_">
			<path id="XMLID_103_" fill="#181818" d="M53.302,31.245v-1.544c0-0.893,0.179-1.663,0.522-2.314
				c0.342-0.651,0.799-1.166,1.354-1.542c0.553-0.378,1.157-0.686,1.826-0.96c0.668-0.274,1.336-0.48,2.005-0.652
				c0.667-0.171,1.271-0.326,1.827-0.497c1.237-0.394,1.858-0.943,1.858-1.679c0-0.789-0.197-1.32-0.587-1.612
				c-0.392-0.291-1.044-0.429-1.957-0.429h-0.718c-1.288,0-2.136,0.429-2.544,1.304c-0.292,0.651-0.75,0.994-1.354,0.994h-1.189
				c-0.327,0-0.588-0.12-0.767-0.359c-0.179-0.24-0.277-0.515-0.277-0.807c0-0.805,0.293-1.524,0.88-2.159
				c0.587-0.634,1.305-1.131,2.185-1.439c0.864-0.326,1.778-0.48,2.707-0.48h1.353c2.936,0,4.778,0.857,5.56,2.572
				c0.313,0.668,0.457,1.457,0.457,2.348c0,0.892-0.179,1.645-0.52,2.28c-0.345,0.617-0.801,1.114-1.338,1.491
				c-0.556,0.361-1.158,0.687-1.826,0.96c-0.669,0.273-1.339,0.482-2.005,0.651c-0.669,0.173-1.272,0.342-1.826,0.498
				c-1.256,0.359-1.875,0.841-1.875,1.423h8.315c0.276,0,0.506,0.103,0.685,0.291c0.18,0.189,0.276,0.428,0.276,0.703v0.992
				c0,0.275-0.097,0.514-0.276,0.703c-0.194,0.188-0.408,0.291-0.669,0.291h-11.12c-0.261,0-0.489-0.103-0.685-0.291
				C53.4,31.741,53.302,31.518,53.302,31.245z"/>
		</g>
	</g>
</g>
</svg>
